<svg width="320" height="213" viewBox="0 0 320 213" fill="none" xmlns="http://www.w3.org/2000/svg">
<path d="M252.343 28.4098C221.747 24.431 204.373 41.373 163.238 43.2176C122.385 40.0439 106.807 22.531 75.8443 25.496C42.5301 28.6825 16.7254 72.0237 24.0683 115.382C31.4112 158.74 76.9152 182.975 100.177 182.826C118.771 182.707 135.194 175.158 156.395 173.344C177.365 175.848 192.969 183.93 211.516 184.662C234.722 185.583 282.692 162.885 294.579 119.846C306.466 76.8077 285.265 32.6869 252.343 28.4098Z" fill="#92E3A9"/>
<path opacity="0.7" d="M252.343 28.4098C221.747 24.431 204.373 41.373 163.238 43.2176C122.385 40.0439 106.807 22.531 75.8443 25.496C42.5301 28.6825 16.7254 72.0237 24.0683 115.382C31.4112 158.74 76.9152 182.975 100.177 182.826C118.771 182.707 135.194 175.158 156.395 173.344C177.365 175.848 192.969 183.93 211.516 184.662C234.722 185.583 282.692 162.885 294.579 119.846C306.466 76.8077 285.265 32.6869 252.343 28.4098Z" fill="white"/>
<path d="M15.7014 192.931H314.133" stroke="#263238" stroke-linecap="round" stroke-linejoin="round"/>
<g opacity="0.15">
<path d="M86.9888 33.9181C85.1882 35.686 79.8592 37.586 79.8549 37.586C79.8506 37.586 79.6672 33.6966 79.6885 33.4495C79.9189 30.5868 82.0522 25.1851 85.1925 24.4482C87.4538 23.9157 89.4592 25.6069 89.7621 27.8136C90.065 30.0202 88.5248 32.4101 86.9888 33.9181Z" fill="black"/>
<path d="M83.7632 105.571C83.7888 105.699 83.8144 105.818 83.8357 105.946L82.1632 107.488C82.0693 106.973 81.9755 106.453 81.8859 105.912C81.6171 104.387 81.3653 102.751 81.1221 101.069C79.4979 101.043 77.8767 100.922 76.2667 100.706C75.3621 102.964 72.1621 106.423 71.744 106.866C72.7851 107.978 73.8133 109.052 74.7989 110.053C75.4731 110.74 76.1273 111.396 76.7616 112.021L74.7648 112.788L73.4165 111.373C72.3541 110.245 71.2405 109.018 70.1056 107.752C69.5851 108.085 65.3141 110.794 62.9675 111.135C60.8341 111.442 58.0395 111.241 56.4224 109.64C54.8053 108.038 54.7157 105.448 56.5035 103.974C58.9909 101.925 64.5888 103.497 67.0123 105.047C67.1573 105.141 68.5995 106.304 69.4955 107.054C69.0347 106.534 68.5824 106.031 68.1173 105.49C67.1829 104.425 66.2869 103.335 65.3184 102.163L63.9573 100.404C63.4923 99.8246 63.0741 99.1515 62.6261 98.5253C61.6107 97.0471 60.6592 95.4964 59.7333 93.916C58.7989 94.7296 55.4283 97.5625 53.3632 98.176C51.2981 98.7894 48.512 99.028 46.6688 97.6903C44.8256 96.3527 44.3435 93.8052 45.888 92.0757C48.0213 89.673 53.8112 90.3717 56.4395 91.5474C56.6059 91.6198 58.3979 92.6678 59.3749 93.2514C58.8245 92.2972 58.2741 91.3472 57.7493 90.3631C56.2347 87.526 54.7925 84.6036 53.3419 81.694C52.9152 80.8037 52.4416 79.9219 51.9893 79.0358C51.6608 79.3297 47.7227 82.7846 45.4144 83.4875C43.3579 84.1137 40.5632 84.3395 38.7243 83.0019C36.8853 81.6642 36.3947 79.1167 37.9435 77.3872C40.0768 74.9845 45.8624 75.6832 48.4949 76.8589C48.6912 76.9484 51.2725 78.4607 51.9083 78.8739C50.9141 76.9271 49.9072 74.9931 48.8363 73.1272C47.4025 70.6013 45.8063 68.1708 44.0576 65.8511C43.904 65.9874 39.8208 69.6127 37.4485 70.3326C35.392 70.9588 32.5973 71.1846 30.7541 69.847C28.9109 68.5093 28.4288 65.9619 29.9776 64.2323C32.1109 61.8297 37.8965 62.5283 40.5291 63.7041C40.7339 63.7978 43.5157 65.4081 43.9893 65.7531C43.8869 65.6211 43.7973 65.472 43.6907 65.3271C41.8741 63.0483 39.8564 60.9368 37.6619 59.0181C36.4672 57.9403 35.2597 56.9775 34.0693 56.0701C33.3739 56.8199 30.1781 60.2279 28.1173 61.1097C26.1376 61.9617 23.3856 62.4857 21.4101 61.3611C19.4347 60.2364 18.6709 57.7571 20.0149 55.8657C21.888 53.2458 27.6949 53.3097 30.4469 54.1872C30.5963 54.2341 32.0597 54.8816 33.1179 55.3672C32.5717 54.9668 32.0171 54.5408 31.488 54.1659C29.504 52.7516 27.5968 51.5844 25.9029 50.5577C24.9344 49.9826 24.0469 49.4842 23.2107 49.0241C22.144 49.4075 17.8347 50.907 15.6373 50.7281C13.44 50.5492 10.8032 49.842 9.57013 47.9208C8.33706 45.9995 8.80213 43.452 10.8715 42.4041C13.7387 40.9386 18.8672 43.6821 20.9024 45.7098C21.0773 45.8887 23.5093 48.9517 23.4624 48.973L23.3984 48.9943C24.2133 49.4203 25.0795 49.8889 26.0139 50.4171C27.7205 51.4054 29.6747 52.5471 31.6971 53.9146C33.8919 55.3715 35.9991 56.9561 38.0075 58.6602C40.271 60.5561 42.36 62.6505 44.2496 64.9182C44.2733 64.9447 44.2947 64.9732 44.3136 65.0034C43.9595 64.1258 43.0336 61.6465 43.008 61.4505C42.3339 58.656 42.6752 52.8581 45.4272 51.1797C47.4112 49.9741 49.856 50.9496 50.8203 52.9561C51.7845 54.9625 51.0805 57.7102 50.0907 59.6187C48.9813 61.77 44.8512 65.0204 44.5227 65.2803C46.3921 67.6335 48.1025 70.1083 49.6427 72.6884C50.5429 74.1879 51.4091 75.7258 52.2539 77.2764C51.9723 76.5096 51.7291 75.8238 51.7035 75.7258C51.0293 72.9312 51.3707 67.1334 54.1227 65.4592C56.1067 64.2493 58.5515 65.2291 59.5157 67.2313C60.48 69.2335 59.776 71.9855 58.7904 73.894C57.8048 75.8025 54.3232 78.6737 53.3973 79.4107C53.7131 80.0113 54.0416 80.6035 54.3573 81.2041C55.872 84.0839 57.3739 86.9637 58.9355 89.7241C59.4816 90.7039 60.0619 91.6454 60.6421 92.5954C60.3947 91.9138 60.1899 91.3387 60.1685 91.2492C59.4944 88.4547 59.8357 82.6568 62.5877 80.9784C64.5675 79.7728 67.0165 80.7483 67.9808 82.7548C68.9451 84.7612 68.2368 87.5089 67.2512 89.4174C66.2656 91.3259 63.1211 93.916 62.0245 94.8021C62.6432 95.752 63.2576 96.7063 63.8976 97.6051C64.3499 98.2058 64.7509 98.815 65.2288 99.3943L66.6283 101.128C67.5541 102.193 68.5056 103.305 69.4357 104.323C70.08 105.039 70.7157 105.703 71.3344 106.381C70.7755 105.414 69.7216 103.492 69.6533 103.322C68.78 100.948 68.5317 98.3899 68.9323 95.8926C68.8247 95.6322 68.7405 95.3628 68.6805 95.0875C68.224 92.9106 69.5723 90.6486 71.8805 90.4015C75.0891 90.0607 78.8864 94.457 80.0512 97.0854C80.1237 97.2388 80.6784 99.0067 81.0112 100.123C80.9173 99.4369 80.8149 98.7681 80.7253 98.061C80.5376 96.6594 80.3925 95.2536 80.2304 93.7456C80.1792 93.0129 80.1237 92.2716 80.0725 91.5261C80.0213 90.7806 80.0256 89.9968 79.9957 89.2257C79.9701 87.4365 80.0299 85.6175 80.1323 83.79C78.9035 83.9518 74.5259 84.4588 72.4523 83.8453C70.3787 83.2319 67.9381 81.8815 67.136 79.7515C66.3339 77.6215 67.3451 75.2316 69.5893 74.6395C72.7083 73.8216 77.1328 77.5917 78.6816 80.0113C78.7797 80.1647 79.6971 82.0263 80.1792 83.0572C80.2517 81.9582 80.3157 80.8633 80.4224 79.7557C80.7253 76.5522 81.1349 73.3231 81.5317 70.0983C81.6555 69.11 81.7621 68.1217 81.8773 67.1163C81.4507 67.176 76.2539 67.8916 73.9328 67.2058C71.872 66.5923 69.4187 65.2419 68.6208 63.1119C67.8229 60.9819 68.8256 58.5921 71.0741 57.9999C74.1888 57.182 78.6133 60.9521 80.1621 63.3718C80.2816 63.555 81.5957 66.2388 81.8987 66.9331C82.1461 64.7648 82.3723 62.5965 82.5088 60.4494C82.7112 57.5537 82.724 54.6479 82.5472 51.7505C82.3424 51.7761 76.9323 52.5514 74.5557 51.8442C72.4949 51.235 70.0416 49.8804 69.2437 47.7546C68.4459 45.6289 69.4485 43.2305 71.6971 42.6426C74.8117 41.8204 79.2363 45.5905 80.7851 48.0102C80.9088 48.2019 82.3211 51.0902 82.5429 51.6312C82.5429 51.4608 82.5429 51.2862 82.5429 51.12C82.2682 48.2396 81.7414 45.3887 80.9685 42.6C80.5419 41.0409 80.0896 39.5754 79.5989 38.1611C78.6048 38.4082 74.0523 39.486 71.8464 39.0855C69.7131 38.7064 67.1531 37.6329 66.1163 35.6051C65.0795 33.5773 65.8219 31.0852 67.9893 30.2545C70.9973 29.0958 75.8101 32.359 77.6192 34.5955C77.7173 34.7148 78.5792 36.0652 79.1936 37.0535C78.9589 36.4188 78.7328 35.7755 78.4981 35.1535C77.6448 32.883 76.6805 30.8552 75.8315 29.066C75.3408 28.0521 74.8757 27.149 74.432 26.3055C73.3312 26.0371 68.9109 24.9125 67.1787 23.5706C65.4464 22.2287 63.6757 20.1115 63.7013 17.8409C63.7269 15.5703 65.5275 13.6959 67.8357 13.9558C71.04 14.3136 73.8091 19.4214 74.3765 22.2372C74.4235 22.48 74.7563 26.3779 74.7008 26.3652H74.6368C75.0635 27.166 75.5413 28.0351 76.032 28.9893C76.9195 30.7615 77.9093 32.7765 78.8395 35.0385C79.8643 37.4541 80.7504 39.9261 81.4933 42.4424C82.3316 45.2705 82.917 48.1673 83.2427 51.0987C83.2405 51.1342 83.2405 51.1698 83.2427 51.2052C83.4304 50.2808 84.0448 47.7163 84.1173 47.5246C85.0987 44.8195 88.5845 40.1761 91.7973 40.2826C94.1184 40.3678 95.6373 42.5319 95.3131 44.7343C94.9888 46.9367 92.9024 48.8409 91.0464 49.8889C88.9131 51.0732 83.6864 51.5077 83.2725 51.5418C83.5275 54.5338 83.5831 57.5395 83.4389 60.5389C83.3664 62.2855 83.2341 64.0449 83.0848 65.8042C83.2725 65.0119 83.4475 64.3047 83.4816 64.2067C84.4629 61.5059 87.9531 56.8582 91.1616 56.9647C93.4827 57.0457 95.0016 59.2098 94.6773 61.4122C94.3531 63.6146 92.2667 65.5231 90.4107 66.571C88.5547 67.619 84.0491 68.0961 82.8672 68.2026C82.7989 68.8757 82.7435 69.553 82.6752 70.2261C82.3509 73.4637 82.0096 76.6928 81.7749 79.8708C81.6939 80.9869 81.6512 82.0945 81.6085 83.2021C81.7749 82.4949 81.9243 81.9028 81.9541 81.8176C82.9355 79.1125 86.4256 74.4691 89.6341 74.5756C91.9552 74.6608 93.4741 76.8249 93.1499 79.0273C92.8256 81.2297 90.7392 83.1339 88.8619 84.1819C86.9845 85.2298 82.9312 85.6601 81.5275 85.7922C81.5275 86.9296 81.5019 88.0627 81.5275 89.1618C81.5701 89.9158 81.5616 90.64 81.6469 91.3898C81.7323 92.1396 81.7877 92.8723 81.856 93.605C82.0395 95.0065 82.2187 96.4549 82.432 97.8181C82.5728 98.7681 82.7264 99.6712 82.8587 100.579C82.9312 99.4625 83.1104 97.2814 83.1488 97.1025C83.7077 94.2823 86.4512 89.1661 89.6512 88.7912C91.9595 88.5228 93.7685 90.4356 93.8027 92.6593C93.8368 94.883 92.0448 97.0854 90.3509 98.406C88.4821 99.8587 83.5755 101.056 82.9611 101.201C83.2299 102.734 83.4944 104.195 83.7632 105.571Z" fill="black"/>
<path d="M33.9755 55.4993C33.9413 55.5461 31.6672 52.3596 31.5477 52.1424C30.1611 49.6247 28.9579 43.9461 31.168 41.6031C32.7595 39.8991 35.3749 40.2144 36.8384 41.8928C38.3019 43.5713 38.3445 46.4084 37.8965 48.5086C37.3717 50.9751 33.9755 55.495 33.9755 55.4993Z" fill="black"/>
</g>
<g opacity="0.15">
<path d="M207.731 45.1049C209.532 46.8728 214.861 48.7728 214.865 48.7728C214.869 48.7728 215.053 44.8834 215.031 44.6363C214.801 41.7736 212.668 36.3719 209.527 35.6349C207.266 35.1024 205.261 36.7936 204.962 39.0003C204.663 41.207 206.199 43.5969 207.731 45.1049Z" fill="black"/>
<path d="M210.957 116.758C210.931 116.886 210.91 117.005 210.884 117.133L212.561 118.675C212.651 118.16 212.745 117.64 212.838 117.099C213.103 115.574 213.355 113.938 213.598 112.255C215.223 112.23 216.846 112.109 218.458 111.893C219.358 114.151 222.562 117.61 222.976 118.053C221.935 119.165 220.907 120.239 219.925 121.235C219.247 121.926 218.594 122.582 217.958 123.208L219.955 123.97C220.382 123.514 220.843 123.046 221.303 122.56C222.366 121.431 223.479 120.204 224.614 118.939C225.135 119.272 229.41 121.981 231.757 122.322C233.89 122.628 236.681 122.428 238.298 120.826C239.915 119.225 240.004 116.635 238.217 115.161C235.729 113.112 230.11 114.684 227.708 116.234C227.563 116.324 226.125 117.491 225.225 118.241C225.685 117.721 226.138 117.218 226.607 116.677C227.537 115.612 228.433 114.522 229.402 113.35L230.763 111.591C231.228 111.011 231.646 110.338 232.098 109.712C233.109 108.234 234.061 106.683 234.987 105.103C235.925 105.916 239.292 108.749 241.357 109.363C243.422 109.976 246.208 110.215 248.051 108.877C249.894 107.539 250.377 104.992 248.832 103.262C246.699 100.86 240.913 101.558 238.281 102.734C238.114 102.807 236.322 103.855 235.345 104.438C235.896 103.484 236.45 102.534 236.971 101.55C238.485 98.7085 239.927 95.7904 241.382 92.8808C241.809 91.9905 242.278 91.1087 242.731 90.2226C243.059 90.5165 246.997 93.9714 249.306 94.6743C251.362 95.2962 254.157 95.5263 255.996 94.1887C257.835 92.851 258.325 90.3035 256.777 88.574C254.643 86.1713 248.858 86.87 246.225 88.0457C246.029 88.1309 243.447 89.6432 242.812 90.0607C243.806 88.1139 244.813 86.1799 245.884 84.314C247.318 81.7881 248.914 79.3576 250.662 77.0379C250.816 77.1742 254.899 80.7995 257.271 81.5194C259.328 82.1414 262.123 82.3714 263.966 81.0338C265.809 79.6961 266.291 77.1486 264.742 75.4191C262.609 73.0164 256.823 73.7151 254.191 74.8909C253.986 74.9803 251.204 76.5949 250.731 76.9399C250.833 76.8078 250.923 76.6588 251.029 76.5139C252.846 74.2351 254.864 72.1236 257.058 70.2049C258.253 69.1271 259.46 68.1643 260.655 67.2569C261.346 68.0067 264.542 71.4147 266.628 72.2965C268.604 73.1485 271.356 73.6725 273.331 72.5479C275.307 71.4232 276.075 68.9396 274.726 67.0524C272.853 64.4325 267.046 64.4965 264.294 65.374C264.145 65.4209 262.686 66.0684 261.623 66.554C262.17 66.1536 262.724 65.7276 263.253 65.3527C265.237 63.9384 267.145 62.7669 268.838 61.7445C269.811 61.1694 270.694 60.671 271.531 60.2109C272.597 60.5943 276.907 62.0938 279.104 61.9149C281.301 61.736 283.938 60.9607 285.171 59.0522C286.404 57.1437 285.939 54.592 283.87 53.5142C281.003 52.0487 275.874 54.7922 273.839 56.8199C273.664 56.9946 271.232 60.0618 271.279 60.0831L271.343 60.1044C270.528 60.5304 269.662 60.999 268.727 61.5272C267.021 62.5155 265.071 63.6572 263.044 65.0247C260.84 66.5123 258.726 68.1282 256.713 69.8641C254.444 71.7538 252.349 73.8424 250.453 76.1049L250.389 76.1859C250.743 75.3126 251.669 72.8333 251.695 72.6373C252.369 69.8428 252.028 64.0449 249.276 62.3665C247.296 61.1609 244.847 62.1364 243.883 64.1429C242.918 66.1493 243.627 68.897 244.612 70.8055C245.722 72.9355 249.852 76.2072 250.159 76.4671C248.288 78.8192 246.578 81.2941 245.039 83.8752C244.134 85.3747 243.268 86.9126 242.423 88.4632C242.705 87.6964 242.948 87.0106 242.974 86.9126C243.648 84.118 243.307 78.3202 240.555 76.6417C238.571 75.4361 236.126 76.4117 235.162 78.4181C234.197 80.4246 234.901 83.1723 235.887 85.0808C236.873 86.9893 240.354 89.8605 241.28 90.5975C240.964 91.1981 240.64 91.7903 240.32 92.3909C238.805 95.2707 237.303 98.1504 235.742 100.932C235.196 101.912 234.615 102.853 234.035 103.803C234.283 103.122 234.487 102.547 234.509 102.457C235.183 99.6585 234.842 93.8649 232.094 92.1864C230.11 90.9809 227.661 91.9564 226.701 93.9629C225.741 95.9693 226.441 98.717 227.426 100.626C228.412 102.534 231.556 105.124 232.653 106.01C232.034 106.96 231.42 107.914 230.78 108.813C230.327 109.414 229.926 110.023 229.449 110.602L228.053 112.332C227.123 113.401 226.172 114.509 225.242 115.531C224.597 116.247 223.962 116.911 223.343 117.589C223.902 116.618 224.956 114.701 225.024 114.53C225.897 112.156 226.146 109.598 225.745 107.101C225.853 106.84 225.937 106.571 225.997 106.296C226.453 104.119 225.105 101.857 222.797 101.61C219.588 101.273 215.791 105.669 214.626 108.298C214.558 108.451 213.999 110.219 213.666 111.335C213.76 110.649 213.862 109.98 213.952 109.273C214.14 107.872 214.285 106.466 214.447 104.958C214.498 104.225 214.554 103.484 214.605 102.738C214.656 101.993 214.656 101.209 214.682 100.438C214.707 98.6489 214.647 96.8298 214.545 95.0023C215.778 95.1642 220.151 95.6711 222.225 95.0577C224.299 94.4443 226.743 93.0938 227.541 90.9638C228.339 88.8338 227.332 86.444 225.088 85.8518C221.969 85.0339 217.545 88.804 215.996 91.2237C215.898 91.3771 214.98 93.2387 214.498 94.2696C214.43 93.1705 214.366 92.0757 214.259 90.9681C213.952 87.7646 213.542 84.5355 213.146 81.3064C213.022 80.3223 212.915 79.334 212.8 78.35C213.227 78.4096 218.423 79.1253 220.745 78.4394C222.805 77.826 225.259 76.4756 226.057 74.3456C226.854 72.2156 225.852 69.8257 223.607 69.2336C220.489 68.4157 216.064 72.1858 214.515 74.6054C214.396 74.7886 213.082 77.4682 212.779 78.1668C212.531 75.9985 212.305 73.8301 212.169 71.6831C211.966 68.7874 211.953 65.8815 212.13 62.9842C212.335 63.0097 217.745 63.785 220.122 63.0779C222.182 62.4644 224.636 61.114 225.434 58.9883C226.231 56.8625 225.229 54.4642 222.985 53.8763C219.866 53.0584 215.441 56.8285 213.892 59.2481C213.769 59.4398 212.356 62.3281 212.139 62.8691C212.139 62.6987 212.139 62.5241 212.139 62.3579C212.423 59.4528 212.965 56.5788 213.76 53.7698C214.165 52.2106 214.639 50.7452 215.13 49.3309C216.124 49.5779 220.676 50.6557 222.882 50.2553C225.015 49.8761 227.575 48.7984 228.617 46.7749C229.658 44.7514 228.907 42.255 226.739 41.42C223.753 40.2656 218.918 43.55 217.114 45.7652C217.015 45.8845 216.149 47.2349 215.539 48.2233C215.77 47.5885 215.996 46.9453 216.23 46.3233C217.105 44.0527 218.048 42.025 218.897 40.2358C219.388 39.2219 219.853 38.3145 220.297 37.4753C221.397 37.2069 225.818 36.0823 227.55 34.7404C229.282 33.3985 231.053 31.2812 231.027 29.0107C231.002 26.7401 229.205 24.8657 226.901 25.1341C223.697 25.4919 220.928 30.5996 220.361 33.4155C220.309 33.6583 219.977 37.5562 220.032 37.5434H220.1C219.674 38.3443 219.191 39.2134 218.701 40.1676C217.813 41.9398 216.823 43.9547 215.898 46.2168C214.869 48.6421 213.984 51.1257 213.248 53.6548C212.406 56.4819 211.82 59.379 211.499 62.3111C211.499 62.3452 211.499 62.3835 211.499 62.4176C211.311 61.4932 210.697 58.9286 210.624 58.7369C209.643 56.0318 206.157 51.3884 202.944 51.4949C200.623 51.5801 199.104 53.7442 199.428 55.9466C199.753 58.1491 201.839 60.0533 203.695 61.1012C205.828 62.2855 211.055 62.72 211.473 62.7541C211.214 65.746 211.157 68.7518 211.302 71.7512C211.375 73.4978 211.507 75.2572 211.657 77.0166C211.469 76.2242 211.294 75.5171 211.26 75.4191C210.278 72.7183 206.788 68.0706 203.58 68.1771C201.259 68.258 199.761 70.4221 200.064 72.6245C200.367 74.827 202.475 76.7354 204.352 77.7834C206.229 78.8313 210.714 79.3085 211.9 79.415C211.964 80.0881 212.019 80.7611 212.087 81.4385C212.416 84.6761 212.753 87.9051 212.988 91.0831C213.069 92.1992 213.111 93.3068 213.158 94.4144C212.988 93.7073 212.838 93.1151 212.809 93.0299C211.827 90.3248 208.341 85.6814 205.129 85.7879C202.807 85.8731 201.31 88.0372 201.613 90.2396C201.916 92.442 204.023 94.3463 205.879 95.3942C207.735 96.4422 211.81 96.8725 213.214 97.0045C213.214 98.1419 213.239 99.2751 213.214 100.374C213.167 101.128 213.18 101.852 213.09 102.602C213.001 103.352 212.954 104.085 212.885 104.817C212.702 106.219 212.518 107.667 212.305 109.03C212.164 109.98 212.011 110.884 211.878 111.791C211.81 110.675 211.627 108.494 211.588 108.315C211.029 105.495 208.286 100.378 205.086 100.004C202.778 99.7352 200.969 101.648 200.934 103.872C200.9 106.095 202.692 108.298 204.39 109.614C206.255 111.071 211.162 112.268 211.776 112.413C211.49 113.921 211.226 115.382 210.957 116.758Z" fill="black"/>
<path d="M260.745 66.686C260.783 66.7329 263.053 63.5464 263.172 63.3292C264.563 60.8115 265.766 55.1329 263.556 52.7899C261.961 51.0859 259.345 51.4011 257.886 53.0796C256.427 54.758 256.375 57.5952 256.823 59.6954C257.348 62.1619 260.745 66.6818 260.745 66.686Z" fill="black"/>
</g>
<path d="M233.627 51.0072C233.626 50.5368 233.438 50.0861 233.105 49.7538C232.771 49.4216 232.319 49.235 231.848 49.235H99.3255C99.0848 49.2233 98.8442 49.2604 98.6183 49.3443C98.3925 49.4281 98.186 49.5569 98.0115 49.7228C97.837 49.8887 97.698 50.0883 97.6031 50.3095C97.5081 50.5306 97.4592 50.7687 97.4592 51.0093C97.4592 51.2499 97.5081 51.488 97.6031 51.7092C97.698 51.9303 97.837 52.1299 98.0115 52.2958C98.186 52.4617 98.3925 52.5905 98.6183 52.6744C98.8442 52.7582 99.0848 52.7954 99.3255 52.7836H229.885L220.337 175.898H141.126L136.646 171.165L130.673 175.898H76.1063C75.8656 175.886 75.625 175.923 75.3991 176.007C75.1733 176.091 74.9668 176.219 74.7923 176.385C74.6178 176.551 74.4788 176.751 74.3839 176.972C74.2889 177.193 74.24 177.431 74.24 177.672C74.24 177.913 74.2889 178.151 74.3839 178.372C74.4788 178.593 74.6178 178.792 74.7923 178.958C74.9668 179.124 75.1733 179.253 75.3991 179.337C75.625 179.421 75.8656 179.458 76.1063 179.446H221.472C221.587 179.48 221.706 179.502 221.826 179.51C222.059 179.528 222.293 179.5 222.515 179.428C222.737 179.355 222.942 179.239 223.119 179.087C223.297 178.936 223.442 178.75 223.547 178.542C223.653 178.334 223.716 178.107 223.733 177.874L233.546 51.4673C233.593 51.318 233.62 51.1634 233.627 51.0072Z" fill="#263238" stroke="#263238" stroke-linecap="round" stroke-linejoin="round"/>
<path d="M137.06 172.975C137.764 173.256 139.138 175.638 139.957 177.15H222.137L215.528 161.431C215.528 161.431 209.201 158.568 192.68 153.141C176.16 147.714 165.706 145.835 154.621 148.131C143.537 150.427 139.151 151.871 139.151 151.871C139.151 151.871 135.387 148.74 123.884 148.531C112.381 148.323 78.2012 161.414 78.2012 161.414L75.7905 177.133H133.519C134.581 175.386 136.347 172.69 137.06 172.975Z" fill="white" stroke="#263238" stroke-linecap="round" stroke-linejoin="round"/>
<path d="M151.66 36.9449L138.216 158.687C138.216 158.687 152.885 152.587 162.357 152.297C170.122 152.046 193.504 157.541 201.674 159.539C203.616 160.013 205.588 160.36 207.575 160.579L215.528 161.465L225 40.945C225 40.945 209.418 37.2857 198.12 33.6221C186.822 29.9585 164.494 27.181 151.66 36.9449Z" fill="white" stroke="#263238" stroke-linecap="round" stroke-linejoin="round"/>
<path d="M205.459 45.9036L206.5 38.2356L208.113 38.7851C208.579 38.932 209.019 39.1535 209.414 39.4412C209.728 39.673 209.969 39.9913 210.105 40.3571C210.239 40.7694 210.271 41.2077 210.199 41.6351C210.165 41.9005 210.095 42.16 209.99 42.4061C209.906 42.609 209.767 42.7845 209.589 42.9131C209.405 43.0363 209.187 43.0962 208.966 43.0835L209.585 47.3051L208.505 46.9388L207.938 42.9898L207.084 42.6916L206.598 46.2827L205.459 45.9036ZM207.165 41.929L207.592 42.0739C207.844 42.1724 208.111 42.2243 208.381 42.2272C208.476 42.2266 208.569 42.2049 208.654 42.1636C208.739 42.1223 208.813 42.0625 208.872 41.9887C209.011 41.7723 209.093 41.5248 209.111 41.2687C209.187 40.9125 209.143 40.5414 208.987 40.2122C208.747 39.8887 208.399 39.6608 208.006 39.569L207.511 39.3986L207.165 41.929Z" fill="black"/>
<path d="M210.805 45.1455L210.907 44.3787L213.122 45.1327L213.015 45.8995L210.805 45.1455Z" fill="black"/>
<path d="M214.671 49.0475L215.601 42.1847L214.24 41.7203L214.351 40.928L218.148 42.206L218.037 42.9983L216.719 42.551L215.789 49.4096L214.671 49.0475Z" fill="black"/>
<path d="M151.66 36.945L138.216 158.687C138.216 158.687 128.748 152.587 121.431 152.297C115.842 152.063 98.7324 156.809 90.9414 159.066C88.2231 159.851 85.4509 160.437 82.647 160.817L78.2012 161.435L94.662 42.7599C94.662 42.7599 102.095 40.2806 111.626 36.617C121.158 32.9534 143.596 27.1811 151.66 36.945Z" fill="white" stroke="#263238" stroke-linecap="round" stroke-linejoin="round"/>
<path d="M101.083 47.5353L101.911 41.4392L103.302 41.0132C103.663 40.8914 104.043 40.8309 104.424 40.8343C104.543 40.8306 104.661 40.8582 104.766 40.9143C104.87 40.9703 104.959 41.053 105.021 41.1538C105.143 41.4206 105.176 41.7191 105.115 42.0058C105.084 42.2364 105.026 42.4624 104.94 42.6789C104.859 42.8869 104.744 43.0799 104.599 43.2497C104.449 43.4234 104.268 43.5678 104.066 43.6757L104.633 46.4405L103.703 46.7174L103.187 44.1273L102.436 44.3531L102.048 47.2115L101.083 47.5353ZM102.517 43.778L102.884 43.6672C103.122 43.6008 103.35 43.5034 103.562 43.3775C103.738 43.2742 103.885 43.1275 103.989 42.9515C104.097 42.7521 104.167 42.5337 104.194 42.3083C104.241 41.9504 104.194 41.7161 104.074 41.6011C103.955 41.4861 103.648 41.4989 103.221 41.6267L102.794 41.7545L102.517 43.778Z" fill="black"/>
<path d="M105.657 44.2806L105.743 43.6714L107.645 43.1006L107.552 43.7098L105.657 44.2806Z" fill="black"/>
<path d="M109.011 45.1623L109.753 39.6968L108.584 40.0503L108.67 39.4156L111.938 38.4358L111.852 39.0705L110.718 39.4113L109.975 44.8727L109.011 45.1623Z" fill="black"/>
<path d="M225 40.9109L230.944 52.9284L222.137 177.15L215.528 161.431L225 40.9109Z" fill="white" stroke="#263238" stroke-linecap="round" stroke-linejoin="round"/>
<path d="M133.519 177.15C133.519 177.15 129.457 174.373 125.386 173.359C121.316 172.345 109.706 173.763 98.5063 174.781" stroke="#263238" stroke-linecap="round" stroke-linejoin="round"/>
<path d="M133.732 174.372C133.732 174.372 129.465 170.918 123.961 170.513" stroke="#263238" stroke-linecap="round" stroke-linejoin="round"/>
<path d="M135.567 172.34C135.567 172.34 128.847 166.854 120.497 166.854C114.156 166.854 106.447 168.276 106.447 168.276" stroke="#263238" stroke-linecap="round" stroke-linejoin="round"/>
<path d="M136.177 167.463C136.177 167.463 130.882 163.599 126.197 163.203C121.512 162.807 115.611 163.799 115.611 163.799" stroke="#263238" stroke-linecap="round" stroke-linejoin="round"/>
<path d="M136.565 162.585C136.565 162.585 132.699 159.126 127.405 158.325C124.096 157.842 120.734 157.842 117.425 158.325" stroke="#263238" stroke-linecap="round" stroke-linejoin="round"/>
<path d="M138.617 164.008C138.617 164.008 145.137 159.322 156.111 160.549" stroke="#263238" stroke-linecap="round" stroke-linejoin="round"/>
<path d="M138.212 168.485C138.212 168.485 141.472 166.048 149.817 166.048" stroke="#263238" stroke-linecap="round" stroke-linejoin="round"/>
<path d="M138.822 172.745C138.822 172.745 145.542 170.1 151.652 170.709C157.762 171.318 158.572 171.727 166.107 172.541" stroke="#263238" stroke-linecap="round" stroke-linejoin="round"/>
<path d="M142.487 175.595C145.814 174.417 149.362 173.999 152.872 174.373" stroke="#263238" stroke-linecap="round" stroke-linejoin="round"/>
<path d="M153.687 166.244C153.687 166.244 160.202 166.649 163.458 167.867" stroke="#263238" stroke-linecap="round" stroke-linejoin="round"/>
<path d="M114.592 158.721L110.521 159.735" stroke="#263238" stroke-linecap="round" stroke-linejoin="round"/>
<path d="M104.006 169.09L100.951 169.899" stroke="#263238" stroke-linecap="round" stroke-linejoin="round"/>
<path d="M158.573 161.158L161.832 161.771" stroke="#263238" stroke-linecap="round" stroke-linejoin="round"/>
<path d="M206.218 173.763C206.218 173.763 214.973 174.373 218.229 174.373" stroke="#263238" stroke-linecap="round" stroke-linejoin="round"/>
<path d="M218.229 172.95L214.769 172.75" stroke="#263238" stroke-linecap="round" stroke-linejoin="round"/>
<path d="M206.013 168.681C206.013 168.681 212.938 169.107 216.398 169.495" stroke="#263238" stroke-linecap="round" stroke-linejoin="round"/>
<path d="M79.1655 165.431C83.3022 164.983 87.3904 164.166 91.381 162.99" stroke="#263238" stroke-linecap="round" stroke-linejoin="round"/>
<path d="M83.8459 167.258C83.8459 167.258 88.7355 166.854 91.5857 165.835" stroke="#263238" stroke-linecap="round" stroke-linejoin="round"/>
<path d="M213.954 165.022C213.954 165.022 208.254 165.835 200.108 164.008C195.472 162.944 190.782 162.13 186.058 161.567" stroke="#263238" stroke-linecap="round" stroke-linejoin="round"/>
<path d="M196.648 174.172L202.144 174.373" stroke="#263238" stroke-linecap="round" stroke-linejoin="round"/>
<path d="M227.799 48.1274L225.559 76.9975" stroke="#263238" stroke-linecap="round" stroke-linejoin="round"/>
<path d="M229.024 55.6506L228.004 68.256" stroke="#263238" stroke-linecap="round" stroke-linejoin="round"/>
<path d="M225.359 103.018L223.319 129.651" stroke="#263238" stroke-linecap="round" stroke-linejoin="round"/>
<path d="M222.304 137.375L220.269 164.008" stroke="#263238" stroke-linecap="round" stroke-linejoin="round"/>
<path d="M223.827 99.9673L222.509 117.25" stroke="#263238" stroke-linecap="round" stroke-linejoin="round"/>
<path d="M222.197 120.296L220.879 137.579" stroke="#263238" stroke-linecap="round" stroke-linejoin="round"/>
<path d="M155.121 50.9391C155.121 50.9391 163.752 44.9026 179.296 47.4885" stroke="#B2B2B2" stroke-linecap="round" stroke-linejoin="round"/>
<path d="M154.664 54.7857C154.664 54.7857 163.321 48.728 178.865 51.2584" stroke="#B2B2B2" stroke-linecap="round" stroke-linejoin="round"/>
<path d="M154.212 58.6325C154.212 58.6325 162.89 52.5535 178.434 55.0243" stroke="#B2B2B2" stroke-linecap="round" stroke-linejoin="round"/>
<path d="M153.76 62.475C153.76 62.475 162.459 56.3747 177.998 58.7901" stroke="#B2B2B2" stroke-linecap="round" stroke-linejoin="round"/>
<path d="M153.303 66.3219C153.303 66.3219 162.029 60.2003 177.568 62.5603" stroke="#B2B2B2" stroke-linecap="round" stroke-linejoin="round"/>
<path d="M152.851 70.1687C152.851 70.1687 161.593 64.0258 177.137 66.3347" stroke="#B2B2B2" stroke-linecap="round" stroke-linejoin="round"/>
<path d="M152.394 74.0154C152.394 74.0154 161.162 67.8469 176.714 70.092" stroke="#B2B2B2" stroke-linecap="round" stroke-linejoin="round"/>
<path d="M151.925 77.8623C151.925 77.8623 160.714 71.6725 176.245 73.8579" stroke="#B2B2B2" stroke-linecap="round" stroke-linejoin="round"/>
<path d="M151.498 81.709C151.498 81.709 160.309 75.4979 175.848 77.6279" stroke="#B2B2B2" stroke-linecap="round" stroke-linejoin="round"/>
<path d="M151.033 85.5557C151.033 85.5557 159.869 79.319 175.409 81.3936" stroke="#B2B2B2" stroke-linecap="round" stroke-linejoin="round"/>
<path d="M150.581 89.4026C150.581 89.4026 159.434 83.1447 174.978 85.1426" stroke="#B2B2B2" stroke-linecap="round" stroke-linejoin="round"/>
<path d="M150.129 93.2451C150.129 93.2451 159.003 86.9701 174.547 88.9255" stroke="#B2B2B2" stroke-linecap="round" stroke-linejoin="round"/>
<path d="M149.672 97.0918C149.672 97.0918 158.572 90.7913 174.116 92.6955" stroke="#B2B2B2" stroke-linecap="round" stroke-linejoin="round"/>
<path d="M149.22 100.939C149.22 100.939 158.142 94.6168 173.685 96.4613" stroke="#B2B2B2" stroke-linecap="round" stroke-linejoin="round"/>
<path d="M148.763 104.786C148.763 104.786 157.723 98.4424 173.25 100.227" stroke="#B2B2B2" stroke-linecap="round" stroke-linejoin="round"/>
<path d="M148.311 108.632C148.311 108.632 157.271 102.268 172.819 103.993" stroke="#B2B2B2" stroke-linecap="round" stroke-linejoin="round"/>
<path d="M147.859 112.479C147.859 112.479 156.844 106.089 172.388 107.763" stroke="#B2B2B2" stroke-linecap="round" stroke-linejoin="round"/>
<path d="M147.402 116.326C147.402 116.326 156.414 109.915 171.978 111.529" stroke="#B2B2B2" stroke-linecap="round" stroke-linejoin="round"/>
<path d="M146.95 120.172C146.95 120.172 155.982 113.74 171.526 115.295" stroke="#B2B2B2" stroke-linecap="round" stroke-linejoin="round"/>
<path d="M146.498 124.015C146.498 124.015 155.552 117.561 171.091 119.069" stroke="#B2B2B2" stroke-linecap="round" stroke-linejoin="round"/>
<path d="M146.041 127.862C146.041 127.862 155.121 121.387 170.66 122.831" stroke="#B2B2B2" stroke-linecap="round" stroke-linejoin="round"/>
<path d="M145.589 131.709C145.589 131.709 154.685 125.212 170.229 126.597" stroke="#B2B2B2" stroke-linecap="round" stroke-linejoin="round"/>
<path d="M145.132 135.555C145.132 135.555 154.254 129.033 169.798 130.363" stroke="#B2B2B2" stroke-linecap="round" stroke-linejoin="round"/>
<path d="M144.672 139.402C144.672 139.402 153.815 132.859 169.359 134.132" stroke="#B2B2B2" stroke-linecap="round" stroke-linejoin="round"/>
<path d="M144.245 143.249C144.245 143.249 153.41 136.684 168.953 137.898" stroke="#B2B2B2" stroke-linecap="round" stroke-linejoin="round"/>
<path d="M143.771 147.096C143.771 147.096 152.962 140.506 168.518 141.664" stroke="#B2B2B2" stroke-linecap="round" stroke-linejoin="round"/>
<path d="M143.319 150.943C143.319 150.943 152.531 144.331 168.066 145.43" stroke="#B2B2B2" stroke-linecap="round" stroke-linejoin="round"/>
<path d="M186.485 48.0635C186.485 48.0635 198.572 46.3595 215.554 55.2501" stroke="#B2B2B2" stroke-linecap="round" stroke-linejoin="round"/>
<path d="M186.058 51.8676C186.058 51.8676 198.334 50.2403 215.183 59.0287" stroke="#B2B2B2" stroke-linecap="round" stroke-linejoin="round"/>
<path d="M185.632 55.6676C185.632 55.6676 198.095 54.1425 214.811 62.8074" stroke="#B2B2B2" stroke-linecap="round" stroke-linejoin="round"/>
<path d="M185.23 59.4718C185.23 59.4718 197.881 58.0447 214.461 66.5902" stroke="#B2B2B2" stroke-linecap="round" stroke-linejoin="round"/>
<path d="M184.808 63.2631C184.808 63.2631 197.651 61.9383 214.099 70.3603" stroke="#B2B2B2" stroke-linecap="round" stroke-linejoin="round"/>
<path d="M184.386 67.0971C184.386 67.0971 197.416 65.8702 213.732 74.1687" stroke="#B2B2B2" stroke-linecap="round" stroke-linejoin="round"/>
<path d="M183.968 70.8758C183.968 70.8758 197.194 69.7512 213.369 77.9304" stroke="#B2B2B2" stroke-linecap="round" stroke-linejoin="round"/>
<path d="M183.545 74.68C183.545 74.68 196.951 73.6491 212.985 81.709" stroke="#B2B2B2" stroke-linecap="round" stroke-linejoin="round"/>
<path d="M183.127 78.4799C183.127 78.4799 196.721 77.5513 212.635 85.4876" stroke="#B2B2B2" stroke-linecap="round" stroke-linejoin="round"/>
<path d="M182.705 82.284C182.705 82.284 196.486 81.432 212.273 89.2662" stroke="#B2B2B2" stroke-linecap="round" stroke-linejoin="round"/>
<path d="M182.282 86.0839C182.282 86.0839 196.256 85.3554 211.906 93.049" stroke="#B2B2B2" stroke-linecap="round" stroke-linejoin="round"/>
<path d="M181.864 89.8881C181.864 89.8881 196.021 89.2576 211.543 96.8276" stroke="#B2B2B2" stroke-linecap="round" stroke-linejoin="round"/>
<path d="M181.442 93.6881C181.442 93.6881 195.79 93.1598 211.176 100.606" stroke="#B2B2B2" stroke-linecap="round" stroke-linejoin="round"/>
<path d="M181.024 97.4922C181.024 97.4922 195.556 97.0662 210.809 104.389" stroke="#B2B2B2" stroke-linecap="round" stroke-linejoin="round"/>
<path d="M180.601 101.292C180.601 101.292 195.326 100.96 210.468 108.168" stroke="#B2B2B2" stroke-linecap="round" stroke-linejoin="round"/>
<path d="M180.179 105.096C180.179 105.096 195.091 104.862 210.08 111.946" stroke="#B2B2B2" stroke-linecap="round" stroke-linejoin="round"/>
<path d="M179.761 108.896C179.761 108.896 194.86 108.764 209.713 115.712" stroke="#B2B2B2" stroke-linecap="round" stroke-linejoin="round"/>
<path d="M179.338 112.7C179.338 112.7 194.626 112.666 209.35 119.516" stroke="#B2B2B2" stroke-linecap="round" stroke-linejoin="round"/>
<path d="M178.92 116.513C178.92 116.513 194.395 116.581 208.983 123.299" stroke="#B2B2B2" stroke-linecap="round" stroke-linejoin="round"/>
<path d="M178.498 120.305C178.498 120.305 194.161 120.471 208.62 127.065" stroke="#B2B2B2" stroke-linecap="round" stroke-linejoin="round"/>
<path d="M178.08 124.104C178.08 124.104 193.93 124.369 208.253 130.848" stroke="#B2B2B2" stroke-linecap="round" stroke-linejoin="round"/>
<path d="M177.657 127.909C177.657 127.909 193.696 128.271 207.887 134.627" stroke="#B2B2B2" stroke-linecap="round" stroke-linejoin="round"/>
<path d="M177.235 131.708C177.235 131.708 193.448 132.173 207.528 138.405" stroke="#B2B2B2" stroke-linecap="round" stroke-linejoin="round"/>
<path d="M176.817 135.513C176.817 135.513 193.231 136.075 207.157 142.188" stroke="#B2B2B2" stroke-linecap="round" stroke-linejoin="round"/>
<path d="M176.394 139.313C176.394 139.313 193 139.977 206.794 145.967" stroke="#B2B2B2" stroke-linecap="round" stroke-linejoin="round"/>
<path d="M175.976 143.117C175.976 143.117 192.765 143.879 206.427 149.746" stroke="#B2B2B2" stroke-linecap="round" stroke-linejoin="round"/>
<path d="M175.554 146.917C175.554 146.917 192.535 147.769 206.06 153.528" stroke="#B2B2B2" stroke-linecap="round" stroke-linejoin="round"/>
<path d="M99.3254 52.7837C99.3254 52.7837 103.592 47.7782 117.416 47.4885" stroke="#B2B2B2" stroke-linecap="round" stroke-linejoin="round"/>
<path d="M98.8049 56.6004C98.8049 56.6004 103.072 51.6674 116.917 51.2925" stroke="#B2B2B2" stroke-linecap="round" stroke-linejoin="round"/>
<path d="M98.2803 60.4218C98.2803 60.4218 102.547 55.5569 116.418 55.0925" stroke="#B2B2B2" stroke-linecap="round" stroke-linejoin="round"/>
<path d="M97.7595 64.243C97.7595 64.243 102.026 59.4505 115.923 58.8967" stroke="#B2B2B2" stroke-linecap="round" stroke-linejoin="round"/>
<path d="M97.239 68.0599C97.239 68.0599 101.506 63.3398 115.424 62.6965" stroke="#B2B2B2" stroke-linecap="round" stroke-linejoin="round"/>
<path d="M96.7144 71.8811C96.7144 71.8811 100.981 67.2292 114.924 66.5007" stroke="#B2B2B2" stroke-linecap="round" stroke-linejoin="round"/>
<path d="M96.1938 75.6982C96.1938 75.6982 100.461 71.1187 114.425 70.3008" stroke="#B2B2B2" stroke-linecap="round" stroke-linejoin="round"/>
<path d="M95.6733 79.5194C95.6733 79.5194 99.94 75.0124 113.93 74.105" stroke="#B2B2B2" stroke-linecap="round" stroke-linejoin="round"/>
<path d="M95.1484 83.3405C95.1484 83.3405 99.4407 78.9016 113.431 77.9048" stroke="#B2B2B2" stroke-linecap="round" stroke-linejoin="round"/>
<path d="M94.6279 87.1575C94.6279 87.1575 98.9202 82.791 112.932 81.709" stroke="#B2B2B2" stroke-linecap="round" stroke-linejoin="round"/>
<path d="M94.1074 90.9786C94.1074 90.9573 98.3997 86.6803 112.433 85.5088" stroke="#B2B2B2" stroke-linecap="round" stroke-linejoin="round"/>
<path d="M93.5869 94.7873C93.5869 94.766 97.8792 90.5656 111.934 89.3047" stroke="#B2B2B2" stroke-linecap="round" stroke-linejoin="round"/>
<path d="M93.0449 98.6211C93.0663 98.5955 97.3415 94.4676 111.421 93.1172" stroke="#B2B2B2" stroke-linecap="round" stroke-linejoin="round"/>
<path d="M92.5415 102.455C92.5628 102.425 96.838 98.3699 110.939 96.9172" stroke="#B2B2B2" stroke-linecap="round" stroke-linejoin="round"/>
<path d="M92.021 106.255C92.0423 106.225 96.3175 102.242 110.44 100.717" stroke="#B2B2B2" stroke-linecap="round" stroke-linejoin="round"/>
<path d="M91.4961 110.076C91.5217 110.042 95.7969 106.136 109.945 104.538" stroke="#B2B2B2" stroke-linecap="round" stroke-linejoin="round"/>
<path d="M90.9756 113.893C91.0012 113.859 95.2764 110.025 109.446 108.321" stroke="#B2B2B2" stroke-linecap="round" stroke-linejoin="round"/>
<path d="M90.4551 117.715C90.4807 117.676 94.7559 113.915 108.947 112.125" stroke="#B2B2B2" stroke-linecap="round" stroke-linejoin="round"/>
<path d="M89.9302 121.536C89.96 121.497 94.2352 117.804 108.448 115.925" stroke="#B2B2B2" stroke-linecap="round" stroke-linejoin="round"/>
<path d="M89.4097 125.353C89.4395 125.314 93.7147 121.698 107.953 119.729" stroke="#B2B2B2" stroke-linecap="round" stroke-linejoin="round"/>
<path d="M88.8892 129.174C88.919 129.131 93.1942 125.587 107.453 123.529" stroke="#B2B2B2" stroke-linecap="round" stroke-linejoin="round"/>
<path d="M88.3516 132.991C88.39 132.948 92.6609 129.476 106.941 127.333" stroke="#B2B2B2" stroke-linecap="round" stroke-linejoin="round"/>
<path d="M87.844 136.812C87.8824 136.765 92.1533 133.366 106.455 131.134" stroke="#B2B2B2" stroke-linecap="round" stroke-linejoin="round"/>
<path d="M87.3232 140.633C87.3616 140.582 91.6326 137.259 105.96 134.938" stroke="#B2B2B2" stroke-linecap="round" stroke-linejoin="round"/>
<path d="M86.7986 144.45C86.8413 144.399 91.1165 141.149 105.461 138.738" stroke="#B2B2B2" stroke-linecap="round" stroke-linejoin="round"/>
<path d="M86.2781 148.271C86.3207 148.216 90.5959 145.038 104.962 142.542" stroke="#B2B2B2" stroke-linecap="round" stroke-linejoin="round"/>
<path d="M85.7576 152.089C85.8002 152.033 90.0754 148.928 104.463 146.342" stroke="#B2B2B2" stroke-linecap="round" stroke-linejoin="round"/>
<path d="M122.886 46.3425C122.886 46.3425 133.284 42.6065 143.033 49.2138" stroke="#B2B2B2" stroke-linecap="round" stroke-linejoin="round"/>
<path d="M122.408 50.1339C122.408 50.1339 132.772 46.4192 142.645 52.9626" stroke="#B2B2B2" stroke-linecap="round" stroke-linejoin="round"/>
<path d="M121.93 53.921C121.93 53.921 132.26 50.2318 142.257 56.707" stroke="#B2B2B2" stroke-linecap="round" stroke-linejoin="round"/>
<path d="M121.457 57.7251C121.457 57.7251 131.752 54.0572 141.869 60.4685" stroke="#B2B2B2" stroke-linecap="round" stroke-linejoin="round"/>
<path d="M120.979 61.5039C124.391 60.4982 127.978 60.2186 131.505 60.6831C135.033 61.1476 138.424 62.3458 141.459 64.2005" stroke="#B2B2B2" stroke-linecap="round" stroke-linejoin="round"/>
<path d="M120.505 65.2951C123.934 64.2911 127.534 64.0086 131.077 64.4654C134.621 64.9222 138.031 66.1085 141.092 67.9491" stroke="#B2B2B2" stroke-linecap="round" stroke-linejoin="round"/>
<path d="M120.027 69.0866C123.47 68.0873 127.081 67.8031 130.638 68.2515C134.195 68.6999 137.622 69.8714 140.708 71.6937" stroke="#B2B2B2" stroke-linecap="round" stroke-linejoin="round"/>
<path d="M119.554 72.8781C119.554 72.8781 129.708 69.2954 140.32 75.4341" stroke="#B2B2B2" stroke-linecap="round" stroke-linejoin="round"/>
<path d="M119.072 76.6695C119.072 76.6695 129.192 73.1081 139.927 79.1872" stroke="#B2B2B2" stroke-linecap="round" stroke-linejoin="round"/>
<path d="M118.602 80.4608C118.602 80.4608 128.689 76.9208 139.543 82.9359" stroke="#B2B2B2" stroke-linecap="round" stroke-linejoin="round"/>
<path d="M118.125 84.2522C118.125 84.2522 128.177 80.7377 139.155 86.6804" stroke="#B2B2B2" stroke-linecap="round" stroke-linejoin="round"/>
<path d="M117.646 88.0395C117.646 88.0395 127.665 84.5505 138.771 90.4293" stroke="#B2B2B2" stroke-linecap="round" stroke-linejoin="round"/>
<path d="M117.173 91.8308C117.173 91.8308 127.157 88.3632 138.382 94.1738" stroke="#B2B2B2" stroke-linecap="round" stroke-linejoin="round"/>
<path d="M116.695 95.6392C116.695 95.6392 126.645 92.1928 137.994 97.9396" stroke="#B2B2B2" stroke-linecap="round" stroke-linejoin="round"/>
<path d="M116.221 99.4134C116.221 99.4134 126.133 96.0054 137.606 101.667" stroke="#B2B2B2" stroke-linecap="round" stroke-linejoin="round"/>
<path d="M115.744 103.205C115.744 103.205 125.625 99.7968 137.218 105.416" stroke="#B2B2B2" stroke-linecap="round" stroke-linejoin="round"/>
<path d="M115.27 106.996C115.27 106.996 125.113 103.614 136.834 109.16" stroke="#B2B2B2" stroke-linecap="round" stroke-linejoin="round"/>
<path d="M114.805 110.788C114.805 110.788 124.618 107.427 136.458 112.918" stroke="#B2B2B2" stroke-linecap="round" stroke-linejoin="round"/>
<path d="M114.319 114.579C114.319 114.579 124.094 111.239 136.057 116.658" stroke="#B2B2B2" stroke-linecap="round" stroke-linejoin="round"/>
<path d="M113.841 118.371C113.841 118.371 123.581 115.052 135.669 120.403" stroke="#B2B2B2" stroke-linecap="round" stroke-linejoin="round"/>
<path d="M113.363 122.162C113.363 122.162 123.069 118.865 135.281 124.151" stroke="#B2B2B2" stroke-linecap="round" stroke-linejoin="round"/>
<path d="M112.889 125.949C112.889 125.949 122.557 122.677 134.897 127.896" stroke="#B2B2B2" stroke-linecap="round" stroke-linejoin="round"/>
<path d="M112.411 129.741C112.411 129.741 122.05 126.494 134.508 131.645" stroke="#B2B2B2" stroke-linecap="round" stroke-linejoin="round"/>
<path d="M111.938 133.553C111.938 133.553 121.538 130.328 134.124 135.411" stroke="#B2B2B2" stroke-linecap="round" stroke-linejoin="round"/>
<path d="M111.46 137.323C111.46 137.323 121.026 134.12 133.732 139.138" stroke="#B2B2B2" stroke-linecap="round" stroke-linejoin="round"/>
<path d="M110.986 141.115C110.986 141.115 120.518 137.933 133.344 142.883" stroke="#B2B2B2" stroke-linecap="round" stroke-linejoin="round"/>
<path d="M110.508 144.906C110.508 144.906 120.006 141.745 132.959 146.631" stroke="#B2B2B2" stroke-linecap="round" stroke-linejoin="round"/>
<path d="M154.737 34.7936L148.793 88.9808L154.114 81.4874L158.18 85.8412L163.812 31.4963C163.812 31.4963 158.803 31.8286 154.737 34.7936Z" fill="#263238" stroke="#263238" stroke-linecap="round" stroke-linejoin="round"/>
</svg>
